<?xml version="1.0" standalone="no"?>
<!DOCTYPE svg PUBLIC "-//W3C//DTD SVG 20010904//EN"
 "http://www.w3.org/TR/2001/REC-SVG-20010904/DTD/svg10.dtd">
<svg version="1.0" xmlns="http://www.w3.org/2000/svg"
 width="225.000000pt" height="225.000000pt" viewBox="0 0 225.000000 225.000000"
 preserveAspectRatio="xMidYMid meet">
<metadata>
Created by potrace 1.11, written by Peter Selinger 2001-2013
</metadata>
<g transform="translate(0.000000,225.000000) scale(0.100000,-0.100000)"
fill="#000000" stroke="none">
<path d="M0 1125 l0 -1125 1125 0 1125 0 0 1125 0 1125 -1125 0 -1125 0 0
-1125z m1153 1018 c-7 -2 -21 -2 -30 0 -10 3 -4 5 12 5 17 0 24 -2 18 -5z
m-139 -67 l27 -14 -28 -5 c-33 -6 -62 11 -41 24 16 11 11 11 42 -5z m-49 -26
c-3 -5 -12 -10 -18 -10 -7 0 -18 -9 -25 -21 -7 -12 -19 -18 -27 -15 -8 3 -19
-3 -25 -14 -6 -11 -18 -20 -28 -20 -10 0 -13 3 -6 8 6 4 14 15 17 26 5 13 14
17 31 14 18 -4 22 -1 19 13 -4 12 2 19 19 22 41 8 49 7 43 -3z m-160 -100 c-3
-5 -12 -10 -18 -10 -7 0 -6 4 3 10 19 12 23 12 15 0z m677 -67 c24 -28 45 -76
41 -94 -4 -17 -31 -29 -65 -29 -10 0 -17 5 -15 11 2 13 -25 21 -67 20 -21 0
-38 9 -58 31 -15 17 -28 36 -27 42 0 6 3 5 6 -3 4 -11 7 -11 13 0 5 7 23 14
41 15 17 2 36 7 42 13 17 17 72 13 89 -6z m-277 -23 c8 -7 21 -10 29 -7 12 5
13 1 7 -16 -6 -15 -27 -29 -66 -42 -57 -21 -90 -49 -78 -68 4 -6 0 -8 -11 -4
-13 5 -19 1 -23 -13 -3 -13 -19 -24 -44 -30 -39 -11 -50 -24 -26 -33 7 -3 5
-8 -8 -13 -27 -10 -35 -23 -35 -61 0 -19 -5 -33 -12 -33 -6 0 -9 -2 -7 -4 2
-3 36 4 74 15 38 10 85 19 103 19 18 0 54 9 79 21 43 20 76 18 40 -2 -9 -6
-15 -14 -12 -20 4 -5 1 -9 -4 -9 -6 0 -11 -6 -11 -13 0 -23 -27 -51 -51 -53
-71 -4 -129 -21 -198 -56 -42 -22 -80 -45 -86 -52 -5 -7 -20 -18 -33 -25 -17
-9 -22 -19 -20 -39 4 -34 46 -51 80 -34 13 6 36 16 52 22 24 9 27 8 18 -3 -9
-11 -7 -18 11 -34 12 -11 31 -23 42 -27 19 -7 19 -8 2 -17 -9 -6 -15 -14 -12
-20 4 -5 0 -9 -7 -9 -7 -1 -24 -10 -37 -21 -21 -17 -23 -22 -10 -31 10 -7 7
-8 -13 -4 -15 3 -30 2 -33 -4 -3 -5 -17 -10 -29 -10 -28 0 -48 -22 -44 -47 2
-15 -4 -18 -37 -18 -58 0 -59 -28 -1 -53 33 -14 32 -15 44 18 l10 25 18 -32
c15 -26 23 -31 39 -26 11 4 30 7 43 8 21 0 32 15 38 55 4 20 47 55 52 41 2 -7
11 -6 25 4 12 8 32 15 45 15 13 0 20 4 17 10 -3 6 -2 10 3 10 12 0 37 59 28
67 -3 3 -22 -11 -41 -32 -20 -20 -39 -35 -42 -31 -4 3 3 16 15 29 12 13 22 28
22 35 0 6 30 36 68 68 37 31 75 70 84 86 21 34 34 36 44 6 4 -13 17 -34 30
-47 13 -13 27 -39 30 -59 4 -20 15 -55 26 -78 20 -47 15 -74 -14 -74 -15 0
-18 5 -14 16 9 23 -2 54 -20 54 -10 0 -14 -12 -14 -44 0 -49 -15 -68 -49 -59
-13 3 -26 1 -30 -4 -3 -6 -16 -13 -28 -17 -28 -9 -40 24 -23 65 18 42 5 47
-29 10 -16 -17 -34 -31 -40 -31 -6 0 -11 -6 -11 -14 0 -8 -9 -18 -20 -21 -11
-3 -20 -14 -20 -23 0 -9 -16 -48 -34 -87 -29 -60 -32 -73 -21 -90 22 -36 21
-59 -4 -82 -26 -25 -51 -30 -51 -10 0 6 -5 4 -11 -5 -14 -24 -31 -22 -52 7
-13 18 -15 30 -8 47 33 83 33 99 -3 116 -23 12 -30 12 -44 -1 -9 -8 -34 -15
-55 -15 -31 0 -40 5 -52 29 -8 15 -15 37 -15 48 0 26 -15 34 -30 16 -26 -31
-68 -7 -112 66 -25 40 -68 187 -67 227 1 23 3 29 6 15 6 -29 19 -29 26 -1 7
26 1 38 -19 38 -19 0 -18 19 1 26 22 9 72 -15 95 -44 29 -36 25 -64 -10 -84
-21 -12 -30 -25 -30 -42 0 -45 40 -44 64 2 l14 26 22 -44 c22 -43 22 -44 35
-20 10 19 10 29 0 54 -8 19 -9 39 -4 51 4 11 8 45 8 76 1 44 7 63 30 95 21 29
28 49 27 79 -2 30 -6 39 -18 37 -18 -3 -34 34 -41 96 -4 32 0 50 16 75 12 17
28 44 36 59 15 29 71 58 134 69 65 12 274 4 292 -11z m75 0 c0 -5 -5 -10 -11
-10 -5 0 -7 5 -4 10 3 6 8 10 11 10 2 0 4 -4 4 -10z m-130 -184 c0 -7 -9 -16
-20 -19 -25 -6 -26 8 -2 22 22 13 22 13 22 -3z m70 -23 c-8 -3 -17 -9 -20 -13
-14 -21 -86 -60 -109 -60 -21 0 -69 19 -51 20 3 0 41 13 85 29 44 16 87 29 95
29 13 0 13 0 0 -5z m224 -18 c11 -8 15 -15 9 -15 -19 0 -43 12 -43 21 0 13 12
11 34 -6z m-5 -41 c34 -7 42 -24 12 -24 -11 0 -23 -4 -26 -10 -3 -5 -15 -10
-26 -10 -24 0 -26 20 -1 20 15 1 15 2 -2 15 -23 17 -11 19 43 9z m90 -19 c9
-8 27 -24 41 -35 l25 -20 -35 5 c-19 2 -38 4 -42 4 -4 1 -5 8 -2 16 4 8 -1 17
-10 21 -9 3 -16 10 -16 15 0 14 22 11 39 -6z m-543 -10 c-8 -8 -17 -15 -20
-15 -3 0 -6 7 -6 15 0 9 9 15 21 15 18 0 19 -2 5 -15z m504 -35 c18 -12 2 -12
-25 0 -13 6 -15 9 -5 9 8 0 22 -4 30 -9z m123 -203 c-6 -39 -17 -48 -27 -22
-3 8 -1 15 4 15 6 0 9 3 9 8 -4 26 2 55 11 46 5 -5 7 -26 3 -47z m-33 21 c0
-19 -18 -43 -25 -36 -9 9 4 48 16 48 5 0 9 -6 9 -12z m-320 -389 c0 -28 -37
-58 -91 -74 -42 -12 -79 -30 -79 -37 0 -5 -4 -8 -10 -8 -12 0 -4 61 14 103 7
17 30 49 49 70 l36 39 41 -33 c29 -24 40 -40 40 -60z m190 67 l23 -25 -27 -7
c-16 -4 -32 -1 -41 6 -8 7 -15 9 -15 5 0 -5 -3 -6 -6 -3 -9 9 15 48 30 48 7 0
23 -11 36 -24z m-85 -105 c8 -14 -23 -41 -40 -35 -12 5 -10 10 8 25 26 22 24
21 32 10z m55 -86 c-7 -9 -15 -13 -19 -10 -3 3 1 10 9 15 21 14 24 12 10 -5z
m-633 -37 c-3 -7 -5 -2 -5 12 0 14 2 19 5 13 2 -7 2 -19 0 -25z m458 -45 c5
-52 12 -72 29 -86 11 -10 16 -16 9 -13 -6 4 -14 2 -18 -4 -3 -5 -1 -10 6 -10
10 0 10 -3 1 -12 -7 -7 -12 -21 -12 -33 0 -14 -10 -24 -29 -32 -27 -10 -30 -9
-35 13 -4 14 -11 21 -20 18 -25 -9 -29 29 -5 47 19 14 21 23 16 65 -3 27 -10
50 -16 52 -6 2 -9 7 -6 12 3 4 -4 6 -15 3 -11 -3 -20 0 -20 6 0 6 11 11 25 11
14 0 28 7 31 15 4 8 17 15 29 15 21 0 24 -6 30 -67z m-417 9 c5 2 10 0 11 -4
3 -24 -1 -30 -18 -25 -23 6 -19 -10 14 -58 45 -65 118 -128 202 -177 56 -31
56 -34 22 -93 -10 -16 -25 -60 -35 -97 -9 -37 -20 -66 -24 -63 -4 2 -15 26
-25 52 -10 26 -51 113 -91 193 -40 80 -80 170 -89 201 -17 60 -12 97 10 79 7
-6 17 -9 23 -8z m253 -515 c-1 -4 -1 -15 -1 -24 0 -15 -2 -16 -10 -3 -13 20
-13 43 1 38 6 -2 10 -7 10 -11z"/>
<path d="M727 1124 c-11 -11 3 -24 24 -24 12 0 19 5 17 13 -5 14 -31 21 -41
11z"/>
<path d="M882 964 c14 -14 21 -15 30 -6 8 8 9 12 1 12 -6 0 -20 3 -30 6 -17 7
-17 6 -1 -12z"/>
</g>
</svg>
